HIERARCHY
ROOT root     
{
	OFFSET 0.0000 0.0000 0.0000
	CHANNELS 6 Xposition Yposition Zposition Zrotation Yrotation Xrotation
	JOINT pelvis   
	{
		OFFSET 0.0000 0.0000 0.0000
		CHANNELS 3 Zrotation Yrotation Xrotation
		JOINT thorax   
		{
			OFFSET 0.0000 23.0750 -5.0000
			CHANNELS 3 Zrotation Yrotation Xrotation
			JOINT rclavicle
			{
				OFFSET 0.0000 28.0009 0.0000
				CHANNELS 3 Zrotation Yrotation Xrotation
				JOINT rhumerus 
				{
					OFFSET -18.5725 5.5939 0.0000
					CHANNELS 3 Zrotation Yrotation Xrotation
					JOINT rradius  
					{
						OFFSET -24.8459 0.0000 0.0000
						CHANNELS 3 Zrotation Yrotation Xrotation
						JOINT rhand    
						{
							OFFSET -24.5477 0.0000 0.0000
							CHANNELS 3 Zrotation Yrotation Xrotation
							End Site
							{
								OFFSET -8.1826 0.0000 0.0000
							}
						}
					}
				}
			}
			JOINT lclavicle
			{
				OFFSET 0.0000 28.0009 0.0000
				CHANNELS 3 Zrotation Yrotation Xrotation
				JOINT lhumerus 
				{
					OFFSET 18.5725 5.5939 0.0000
					CHANNELS 3 Zrotation Yrotation Xrotation
					JOINT lradius  
					{
						OFFSET 24.8459 0.0000 0.0000
						CHANNELS 3 Zrotation Yrotation Xrotation
						JOINT lhand    
						{
							OFFSET 24.5477 0.0000 0.0000
							CHANNELS 3 Zrotation Yrotation Xrotation
							End Site
							{
								OFFSET 8.1826 0.0000 0.0000
							}
						}
					}
				}
			}
			JOINT head     
			{
				OFFSET 0.0000 35.2030 0.0000
				CHANNELS 3 Zrotation Yrotation Xrotation
				End Site
				{
					OFFSET 0.0000 11.7343 0.0000
				}
			}
		}
		JOINT rfemur   
		{
			OFFSET -8.2817 0.0000 0.0000
			CHANNELS 3 Zrotation Yrotation Xrotation
			JOINT rtibia   
			{
				OFFSET 0.0000 -43.3627 0.0000
				CHANNELS 3 Zrotation Yrotation Xrotation
				JOINT rfoot    
				{
					OFFSET 0.0000 -38.2947 0.0000
					CHANNELS 3 Zrotation Yrotation Xrotation
					JOINT rtoes    
					{
						OFFSET 0.0000 0.0000 16.6054
						CHANNELS 3 Zrotation Yrotation Xrotation
						End Site
						{
							OFFSET 0.0000 0.0000 5.5351
						}
					}
				}
			}
		}
		JOINT lfemur   
		{
			OFFSET 8.2817 0.0000 0.0000
			CHANNELS 3 Zrotation Yrotation Xrotation
			JOINT ltibia   
			{
				OFFSET 0.0000 -43.3627 0.0000
				CHANNELS 3 Zrotation Yrotation Xrotation
				JOINT lfoot    
				{
					OFFSET 0.0000 -38.2947 0.0000
					CHANNELS 3 Zrotation Yrotation Xrotation
					JOINT ltoes    
					{
						OFFSET 0.0000 0.0000 16.6054
						CHANNELS 3 Zrotation Yrotation Xrotation
						End Site
						{
							OFFSET 0.0000 0.0000 5.5351
						}
					}
				}
			}
		}
	}
}
MOTION
Frames: 7
Frame Time: .0333333
64.959 71.613 16.926 92.1237 -86.1831 -38.1755 0 -0 0 -2.54959 -6.31282 4.95943 20.3841 -4.67276 2.37055e-05 62.0695 28.9907 1.92381 -1.68279e-07 28.3898 -6.65287e-07 -12.2534 15.079 -1.62792 -14.418 3.79259 -1.15946e-05 -55.4779 -26.995 6.62601 -3.00544e-07 -42.829 7.66337e-07 9.92939 -5.14612 -0.447302 2.44286 -4.70988 -40.8611 -1.81042 -7.91922 -71.031 -0 -0 68.19 7.15865e-05 -15.8682 -29.8108 8.04332 6.04459e-05 -58.3154 -5.20168 2.47084 -74.8446 -0 -0 70.6349 6.27305e-05 15.4855 -26.9767 -7.16348 -1.22556e-05 -56.301 
63.43 72.315 16.852 91.3406 -86.127 -38.7841 0 -0 0 -2.74004 -6.35101 4.3446 19.7165 -4.96037 1.54673e-05 62.2917 29.7804 4.76125 -0 31.3771 -0 -12.8625 14.86 -1.68434 -13.5917 3.7255 1.80726e-05 -55.9434 -27.8981 7.56675 -3.28273e-07 -45.1224 7.90132e-07 9.92489 -5.2945 -0.459992 2.44362 -5.09975 -38.7763 -1.86894 -8.18039 -67.5565 -0 -0 66.0335 0.000195457 -15.2677 -29.0727 7.55509 4.32491e-05 -59.2663 -5.09416 2.73316 -71.4291 -0 -0 68.6036 9.0948e-05 15.2924 -26.3645 -6.92342 -2.30409e-05 -56.8992 
61.824 73.104 16.78 90.4523 -86.0862 -39.3625 0 -0 0 -2.91256 -6.39973 3.84909 19.0179 -5.23959 2.47288e-05 62.4606 30.537 7.33375 -0 34.35 -0 -13.5514 14.6869 -1.75446 -12.7987 3.66413 -1.20991e-05 -56.4197 -28.7197 8.39362 -3.58639e-07 -47.4105 8.16806e-07 9.89343 -5.46741 -0.473603 2.39938 -5.49637 -36.5965 -1.93191 -8.5101 -63.9604 -0 -0 63.7608 -0.000204565 -14.4442 -27.7811 6.84624 4.09012e-05 -61.1065 -4.94034 3.00121 -67.8366 -0 -0 66.3615 -8.1121e-05 14.9852 -25.4306 -6.55696 -3.32888e-06 -57.9851 
60.142 73.982 16.711 89.4479 -86.0686 -39.9009 0 -0 0 -3.05646 -6.45221 3.49335 18.2853 -5.4933 1.04371e-05 62.5754 31.2591 9.62689 -0 37.2946 -0 -14.2732 14.506 -1.82581 -12.0431 3.59498 3.81142e-06 -56.8865 -29.4296 9.08766 -0 -49.7288 0 9.83573 -5.65159 -0.486692 2.30637 -5.89018 -34.3586 -1.98834 -8.91829 -60.2743 -0 -0 61.4026 6.46227e-05 -13.4016 -25.8421 5.92907 2.95176e-05 -63.8879 -4.7313 3.2809 -64.092 -0 -0 63.9321 -4.99881e-05 14.5503 -24.0746 -6.04385 -5.62828e-05 -59.7339 
58.391 74.945 16.641 88.3838 -86.0535 -40.4373 0 -0 0 -3.16739 -6.49684 3.28936 17.5229 -5.71459 -4.27493e-06 62.6283 31.9493 11.6406 -0 40.1989 -0 -14.9761 14.2885 -1.88768 -11.3332 3.517 1.83237e-07 -57.3263 -30.0148 9.65108 -0 -52.1159 0 9.75602 -5.83061 -0.497995 2.1657 -6.27195 -32.0988 -2.03116 -9.41574 -56.5443 -0 -0 58.9962 7.44854e-05 -12.1555 -23.1757 4.8451 4.68794e-06 -67.6934 -4.46148 3.57809 -60.2284 -0 -0 61.3417 -0.000139407 13.9919 -22.201 -5.37854 -2.82514e-05 -62.2523 
56.582 75.991 16.569 87.2191 -86.0914 -40.9321 0 -0 0 -3.23022 -6.52987 3.2401 16.7317 -5.89108 1.19607e-05 62.6049 32.6092 13.3758 -0 43.0567 -0 -15.606 14.0308 -1.93219 -10.6728 3.42018 -1.90621e-06 -57.7131 -30.4394 10.068 -0 -54.6333 0 9.65557 -5.98514 -0.506002 1.97502 -6.62597 -29.8536 -2.05068 -10.0109 -52.8251 -0 -0 56.5823 7.41554e-05 -10.7327 -19.764 3.66725 -5.92553e-06 -72.1406 -4.12196 3.89796 -56.2981 -0 -0 58.6301 2.84606e-05 13.3244 -19.7311 -4.57151 1.59042e-05 -65.5445 
54.728 77.113 16.491 86.0742 -86.1755 -41.4739 0 -0 0 -3.24487 -6.54068 3.33281 15.9294 -6.02673 1.25804e-05 62.4801 33.2473 14.8497 -3.37831e-07 45.8668 -7.98462e-07 -16.1233 13.7431 -1.95576 -10.0666 3.31325 1.58055e-06 -58.0238 -30.7039 10.3558 -5.36313e-07 -57.3224 9.81171e-07 9.54051 -6.09896 -0.509408 1.74257 -6.94266 -27.6547 -2.04759 -10.7105 -49.1857 -0 -0 54.2058 -1.14497e-05 -9.17045 -15.6138 2.48797 1.86188e-05 -77.0633 -3.71528 4.24569 -52.3638 -0 -0 55.8479 -2.63342e-05 12.5729 -16.6141 -3.64875 -3.64401e-05 -69.5023 
